<?xml version="1.0" encoding="UTF-8"?>
<svg version="1.1" xmlns="http://www.w3.org/2000/svg" width="420" height="420">
<path d="M0 0 C0.98484375 0.53367187 1.9696875 1.06734375 2.984375 1.6171875 C5.00140666 2.72592851 7.00714051 3.84857007 9 5 C9 5.66 9 6.32 9 7 C9.763125 7.28875 10.52625 7.5775 11.3125 7.875 C14 9 14 9 17 11 C17 11.66 17 12.32 17 13 C17.598125 13.28875 18.19625 13.5775 18.8125 13.875 C21 15 21 15 24 17 C24 17.66 24 18.32 24 19 C24.57492187 19.24363281 25.14984375 19.48726562 25.7421875 19.73828125 C35.13885022 24.98935748 41.44966107 37.03826798 47 46 C47.65226562 47.05058594 48.30453125 48.10117188 48.9765625 49.18359375 C64.817755 76.57420193 66.8545023 111.02819455 58.93359375 141.17578125 C54.88924987 155.5716584 47.90145787 168.07105923 39 180 C38.49855469 180.67675781 37.99710937 181.35351562 37.48046875 182.05078125 C24.00752732 198.94049168 1.64698349 209.81637454 -19.26953125 213.58984375 C-41.97227334 216.08595675 -62.29272048 212.56761336 -81 199 C-88.35273083 192.77077643 -94.10976084 185.62303571 -96 176 C-96.1853518 173.27825519 -96.14157354 170.73708849 -96 168 C-94.441951 166.441951 -92.8960575 166.83671551 -90.73046875 166.7890625 C-72.17544799 166.24233091 -58.22664231 163.71316972 -44 151 C-43.34 151 -42.68 151 -42 151 C-41.72800781 150.41347656 -41.45601562 149.82695312 -41.17578125 149.22265625 C-40.02280864 147.04311667 -38.74557711 145.34090291 -37.1875 143.4375 C-27.89504831 131.13066765 -24.61730282 115.75292604 -26.3984375 100.61328125 C-28.13430592 89.82609892 -32.14458687 79.47027152 -38.75 70.66796875 C-40 69 -40 69 -40 67 C-40.66 67 -41.32 67 -42 67 C-43.68732277 65.01739574 -45.35366057 63.0167658 -47 61 C-47.66 60.67 -48.32 60.34 -49 60 C-49 59.34 -49 58.68 -49 58 C-49.66 58 -50.32 58 -51 58 C-51 57.34 -51 56.68 -51 56 C-51.7321875 55.72671875 -52.464375 55.4534375 -53.21875 55.171875 C-55.85860943 54.05957468 -58.08868186 52.78597663 -60.5 51.25 C-83.44536022 37.34681136 -110.92550904 34.40754061 -136.96533203 40.45654297 C-156.68491524 45.29921485 -174.70347973 54.62118507 -190 68 C-190.48694336 68.4242627 -190.97388672 68.84852539 -191.47558594 69.28564453 C-207.34599623 83.37876913 -217.66613701 101.70865048 -226 121 C-226.66 121 -227.32 121 -228 121 C-227.70485723 109.20904624 -226.18527431 98.35797905 -223 87 C-222.56880859 85.42992187 -222.56880859 85.42992187 -222.12890625 83.828125 C-214.99926125 60.37951477 -199.68642439 40.49159296 -183 23 C-182.44183594 22.39414063 -181.88367188 21.78828125 -181.30859375 21.1640625 C-180 20 -180 20 -178 20 C-178 19.34 -178 18.68 -178 18 C-175.78709095 16.17707082 -173.57500817 14.48221752 -171.25 12.8125 C-170.56405762 12.31709717 -169.87811523 11.82169434 -169.17138672 11.3112793 C-147.04616842 -4.47151354 -122.63794434 -13.45965147 -96 -18 C-94.93136719 -18.19335938 -93.86273438 -18.38671875 -92.76171875 -18.5859375 C-60.11989485 -22.17891085 -28.67675532 -15.64781854 0 0 Z " fill="#3685A7" transform="translate(327,112)"/>
<path d="M0 0 C6.79722533 7.06355614 12.29296875 16.36797369 12.29296875 26.3828125 C11.67478271 26.3921582 11.05659668 26.40150391 10.41967773 26.41113281 C-10.47811703 26.8067848 -30.18325617 29.33198698 -46.20703125 44.1328125 C-53.2251161 51.9445167 -58.5147641 61.09183942 -60.70703125 71.3828125 C-60.88878906 72.15753906 -61.07054687 72.93226563 -61.2578125 73.73046875 C-63.57247257 87.39702692 -61.22827653 102.19189349 -54.70703125 114.3828125 C-54.32160156 115.1459375 -53.93617188 115.9090625 -53.5390625 116.6953125 C-43.79392996 134.5280477 -26.74620119 146.96559228 -7.70703125 153.3828125 C-3.06915022 154.58980203 1.57593514 155.54543361 6.29296875 156.3828125 C7.08098877 156.55409668 7.86900879 156.72538086 8.6809082 156.90185547 C34.71696652 161.69585817 61.25675424 152.70316803 83.29296875 139.3828125 C85.8806767 137.54691594 88.32622931 135.66917667 90.7265625 133.59765625 C92.29296875 132.3828125 92.29296875 132.3828125 94.29296875 132.3828125 C94.29296875 131.7228125 94.29296875 131.0628125 94.29296875 130.3828125 C96.0078125 128.7265625 96.0078125 128.7265625 98.23046875 126.8828125 C101.21342054 124.49354251 101.21342054 124.49354251 103.29296875 121.3828125 C103.95296875 121.3828125 104.61296875 121.3828125 105.29296875 121.3828125 C105.29296875 120.7228125 105.29296875 120.0628125 105.29296875 119.3828125 C105.95296875 119.3828125 106.61296875 119.3828125 107.29296875 119.3828125 C107.51855469 118.86976563 107.74414062 118.35671875 107.9765625 117.828125 C109.81068602 114.4211181 112.07911573 111.38095596 114.35546875 108.2578125 C117.57299035 103.97595226 117.57299035 103.97595226 120.29296875 99.3828125 C120.95296875 99.3828125 121.61296875 99.3828125 122.29296875 99.3828125 C121.43281671 112.28509311 116.23656325 123.08604679 110.29296875 134.3828125 C109.84308594 135.29675781 109.39320313 136.21070313 108.9296875 137.15234375 C104.45608851 145.95438071 98.3854857 153.65455335 92.29296875 161.3828125 C91.82648926 161.9814209 91.36000977 162.5800293 90.87939453 163.19677734 C89.7319201 164.63185621 88.51803348 166.01337272 87.29296875 167.3828125 C86.63296875 167.3828125 85.97296875 167.3828125 85.29296875 167.3828125 C85.29296875 168.0428125 85.29296875 168.7028125 85.29296875 169.3828125 C84.63296875 169.3828125 83.97296875 169.3828125 83.29296875 169.3828125 C83.29296875 170.0428125 83.29296875 170.7028125 83.29296875 171.3828125 C82.63296875 171.3828125 81.97296875 171.3828125 81.29296875 171.3828125 C81.29296875 172.0428125 81.29296875 172.7028125 81.29296875 173.3828125 C63.8245572 190.23383736 40.69274243 201.69865695 17.29296875 207.3828125 C16.58760986 207.5566748 15.88225098 207.73053711 15.15551758 207.90966797 C9.62456334 209.21668765 4.13524016 209.97562449 -1.51953125 210.5078125 C-2.84307617 210.6330127 -2.84307617 210.6330127 -4.19335938 210.76074219 C-39.55393152 213.94345349 -73.74111004 204.90949718 -102.70703125 184.3828125 C-103.84205078 183.61904297 -103.84205078 183.61904297 -105 182.83984375 C-106.60931009 181.74448498 -108.1666268 180.57312503 -109.70703125 179.3828125 C-109.70703125 178.7228125 -109.70703125 178.0628125 -109.70703125 177.3828125 C-110.53267578 177.04443359 -110.53267578 177.04443359 -111.375 176.69921875 C-119.18260551 172.29191045 -126.88800824 162.86627827 -131.70703125 155.3828125 C-131.70703125 154.7228125 -131.70703125 154.0628125 -131.70703125 153.3828125 C-132.36703125 153.3828125 -133.02703125 153.3828125 -133.70703125 153.3828125 C-135.37896844 150.91311368 -136.90490823 148.46066478 -138.39453125 145.8828125 C-138.84006348 145.11541748 -139.2855957 144.34802246 -139.74462891 143.55737305 C-154.48624436 117.68395478 -160.41512642 88.45814952 -153.73828125 58.96875 C-149.21355739 43.23505113 -141.28233208 27.18018146 -129.70703125 15.3828125 C-129.04703125 15.3828125 -128.38703125 15.3828125 -127.70703125 15.3828125 C-127.47628906 14.81046875 -127.24554688 14.238125 -127.0078125 13.6484375 C-122.01000855 4.94355374 -110.1661203 -0.80091484 -101.70703125 -5.6171875 C-100.75183594 -6.16375 -99.79664063 -6.7103125 -98.8125 -7.2734375 C-68.78032674 -23.37824176 -25.85394639 -24.29068452 0 0 Z " fill="#266489" transform="translate(267.70703125,195.6171875)"/>
<path d="M0 0 C0.66 0 1.32 0 2 0 C1.13703062 12.94454074 -4.08109101 23.68701139 -10 35 C-10.67012312 36.3315995 -11.33857747 37.66405746 -12 39 C-12.33 39 -12.66 39 -13 39 C-13.66 36.03 -14.32 33.06 -15 30 C-15.99 30.99 -16.98 31.98 -18 33 C-18 29.23312136 -17.76462683 28.08809695 -16 25 C-16.99 25 -17.98 25 -19 25 C-18.01 23.515 -18.01 23.515 -17 22 C-16.34 22 -15.68 22 -15 22 C-15 21.34 -15 20.68 -15 20 C-14.34 20 -13.68 20 -13 20 C-12.77441406 19.48695313 -12.54882812 18.97390625 -12.31640625 18.4453125 C-10.48228273 15.0383056 -8.21385302 11.99814346 -5.9375 8.875 C-2.7199784 4.59313976 -2.7199784 4.59313976 0 0 Z " fill="#2F5978" transform="translate(388,295)"/>
<path d="M0 0 C0.68359375 1.70703125 0.68359375 1.70703125 1 4 C-0.15234375 6.19921875 -0.15234375 6.19921875 -1.9375 8.6875 C-6.87765366 16.01805059 -10.37152213 23.96080097 -14 32 C-14.66 32 -15.32 32 -16 32 C-15.19148936 13.65957447 -15.19148936 13.65957447 -13 5 C-12.67 5 -12.34 5 -12 5 C-11.67 6.65 -11.34 8.3 -11 10 C-7.75480334 9.69593558 -6.38099448 9.43719323 -4.19921875 6.93359375 C-3.70035156 6.10988281 -3.20148438 5.28617188 -2.6875 4.4375 C-2.17574219 3.61121094 -1.66398437 2.78492188 -1.13671875 1.93359375 C-0.76160156 1.29550781 -0.38648437 0.65742188 0 0 Z " fill="#518DA6" transform="translate(115,201)"/>
<path d="M0 0 C1.05443659 2.10887318 1.32567515 3.6738183 1.625 6 C1.72039062 6.70125 1.81578125 7.4025 1.9140625 8.125 C2 10 2 10 1 12 C1.66 12 2.32 12 3 12 C3.66 8.7 4.32 5.4 5 2 C6.32 1.67 7.64 1.34 9 1 C8.24763327 4.48596584 6.99363494 7.64862878 5.625 10.9375 C5.20476562 11.95714844 4.78453125 12.97679687 4.3515625 14.02734375 C3.07345388 16.83844391 1.69923538 19.42266812 0 22 C-0.33 22 -0.66 22 -1 22 C-1.66 19.03 -2.32 16.06 -3 13 C-3.99 13.99 -4.98 14.98 -6 16 C-6 12.23312136 -5.76462683 11.08809695 -4 8 C-4.99 8 -5.98 8 -7 8 C-6.34 7.01 -5.68 6.02 -5 5 C-4.34 5 -3.68 5 -3 5 C-3 4.34 -3 3.68 -3 3 C-2.34 3 -1.68 3 -1 3 C-0.67 2.01 -0.34 1.02 0 0 Z " fill="#477492" transform="translate(376,312)"/>
<path d="M0 0 C-3.68671527 2.34872434 -6.8356952 2.21711803 -11.13671875 2.16015625 C-11.81676468 2.15495468 -12.49681061 2.14975311 -13.19746399 2.14439392 C-15.36103045 2.12663494 -17.52411578 2.09544982 -19.6875 2.0625 C-21.86154747 2.03490752 -24.03553023 2.01022087 -26.20967102 1.99131775 C-28.17459988 1.97344852 -30.13943514 1.94605159 -32.10424805 1.91821289 C-34.89420457 1.66525075 -34.89420457 1.66525075 -36 3 C-38.9375 3.1875 -38.9375 3.1875 -42 3 C-42.66 2.34 -43.32 1.68 -44 1 C-28.9950489 -2.48873581 -15.16615024 -1.75730318 0 0 Z " fill="#52788E" transform="translate(236,179)"/>
<path d="M0 0 C0.66 0 1.32 0 2 0 C2.36585111 14.0299212 1.88487726 27.24531733 -1 41 C-3.53808234 37.21646461 -2.88763201 34.4394543 -2.1875 30.0625 C-0.71267571 20.08198763 -0.361404 10.07230005 0 0 Z " fill="#6495AA" transform="translate(388,208)"/>
<path d="M0 0 C0.66 0.33 1.32 0.66 2 1 C2 1.66 2 2.32 2 3 C2.66 3.33 3.32 3.66 4 4 C0.12207712 8.92908146 -3.76116833 12.5423711 -9 16 C-8.61430544 10.31100518 -8.17817975 7.17817975 -4 3 C-1.75 1.1875 -1.75 1.1875 0 0 Z " fill="#488BAA" transform="translate(362,288)"/>
<path d="M0 0 C2.97 0 5.94 0 9 0 C9 0.66 9 1.32 9 2 C11.64 1.67 14.28 1.34 17 1 C17.12375 2.134375 17.2475 3.26875 17.375 4.4375 C17.58125 5.613125 17.7875 6.78875 18 8 C18.66 8.33 19.32 8.66 20 9 C18 10 18 10 16.22827148 9.41088867 C15.53290283 9.0832251 14.83753418 8.75556152 14.12109375 8.41796875 C13.36505859 8.06283203 12.60902344 7.70769531 11.83007812 7.34179688 C11.04052734 6.96087891 10.25097656 6.57996094 9.4375 6.1875 C8.64408203 5.81818359 7.85066406 5.44886719 7.03320312 5.06835938 C1.13028274 2.26056548 1.13028274 2.26056548 0 0 Z " fill="#34688A" transform="translate(174,385)"/>
<path d="M0 0 C1 3 1 3 -0.3125 5.6875 C-0.869375 6.450625 -1.42625 7.21375 -2 8 C-2.66 8 -3.32 8 -4 8 C-4.33 8.99 -4.66 9.98 -5 11 C-5.66 11 -6.32 11 -7 11 C-7.28875 11.94875 -7.5775 12.8975 -7.875 13.875 C-9 17 -9 17 -11 19 C-11.2475 19.639375 -11.495 20.27875 -11.75 20.9375 C-13.53560369 23.88374608 -15.90728513 24.65534136 -19 26 C-14.40319143 16.27598188 -6.93366209 8.11949968 0 0 Z " fill="#5A90A5" transform="translate(139,140)"/>
<path d="M0 0 C0.33 0.66 0.66 1.32 1 2 C0.67 2.66 0.34 3.32 0 4 C0.66 4 1.32 4 2 4 C1.71572583 5.58467728 1.42225182 7.1677057 1.125 8.75 C0.96257812 9.63171875 0.80015625 10.5134375 0.6328125 11.421875 C0.03203736 13.86947744 -0.77997117 15.80599857 -2 18 C-2.66 18 -3.32 18 -4 18 C-5.7607061 8.48835945 -5.7607061 8.48835945 -3.125 3.9375 C-1 1 -1 1 0 0 Z " fill="#376D8D" transform="translate(381,306)"/>
<path d="M0 0 C0.66 0 1.32 0 2 0 C2.33 1.65 2.66 3.3 3 5 C3.66 4.34 4.32 3.68 5 3 C6.305239 6.91571701 5.32239848 8.03892997 3.5625 11.6875 C3.08941406 12.68136719 2.61632812 13.67523438 2.12890625 14.69921875 C1.57009766 15.83810547 1.57009766 15.83810547 1 17 C0.34 17 -0.32 17 -1 17 C-0.67 11.39 -0.34 5.78 0 0 Z " fill="#638EA1" transform="translate(100,216)"/>
<path d="M0 0 C0.66 0 1.32 0 2 0 C2.3125 2.1875 2.3125 2.1875 2 5 C-0.375 7.8125 -0.375 7.8125 -3 10 C-3.66 10 -4.32 10 -5 10 C-5.268125 10.78375 -5.53625 11.5675 -5.8125 12.375 C-7 15 -7 15 -10 17 C-9.50551253 12.32405704 -7.36987849 9.30326291 -4.5625 5.6875 C-4.15451172 5.13771484 -3.74652344 4.58792969 -3.32617188 4.02148438 C-2.27226401 2.63747812 -1.14122679 1.31293431 0 0 Z " fill="#4B738B" transform="translate(138,211)"/>
<path d="M0 0 C3.76024616 2.50683077 4.39192086 4.86493934 6 9 C6.99 9 7.98 9 9 9 C8.79375 9.94875 8.5875 10.8975 8.375 11.875 C8.25125 12.90625 8.1275 13.9375 8 15 C8.66 15.66 9.32 16.32 10 17 C9.01 17 8.02 17 7 17 C5.63319847 14.73595458 4.28155555 12.46498979 2.9375 10.1875 C2.54755859 9.54490234 2.15761719 8.90230469 1.75585938 8.24023438 C0.75869241 6.5371085 -0.12812687 4.77054142 -1 3 C-0.67 2.01 -0.34 1.02 0 0 Z " fill="#567F97" transform="translate(124,327)"/>
<path d="M0 0 C2 3 2 3 2 7 C-3.61 7 -9.22 7 -15 7 C-12 4 -12 4 -9.08203125 3.70703125 C-8.00308594 3.74183594 -6.92414063 3.77664062 -5.8125 3.8125 C-4.72582031 3.83957031 -3.63914062 3.86664063 -2.51953125 3.89453125 C-1.27236328 3.94673828 -1.27236328 3.94673828 0 4 C0 2.68 0 1.36 0 0 Z " fill="#5E7E99" transform="translate(278,215)"/>
<path d="M0 0 C0.74507812 0.00902344 1.49015625 0.01804687 2.2578125 0.02734375 C4.08868059 0.05081642 5.91938238 0.08668475 7.75 0.125 C4.04583874 2.50090142 0.82015427 2.33000286 -3.5 2.25 C-4.76328125 2.23195313 -6.0265625 2.21390625 -7.328125 2.1953125 C-8.29234375 2.17210937 -9.2565625 2.14890625 -10.25 2.125 C-9.940625 3.548125 -9.940625 3.548125 -9.625 5 C-9.50125 6.03125 -9.3775 7.0625 -9.25 8.125 C-9.91 8.785 -10.57 9.445 -11.25 10.125 C-12.60439668 7.41620665 -12.31501451 5.11566732 -12.25 2.125 C-8.4084024 -0.44280471 -4.4360825 -0.10188882 0 0 Z " fill="#32768E" transform="translate(244.25,279.875)"/>
<path d="M0 0 C4.99184736 -0.29363808 7.97444744 -0.07836372 12 3 C12.33 3.66 12.66 4.32 13 5 C15.01669827 6.13350534 15.01669827 6.13350534 17 7 C14.35672682 8.00579304 13.23258313 8.08377402 10.52734375 7.109375 C9.67269531 6.66078125 8.81804687 6.2121875 7.9375 5.75 C7.08027344 5.31171875 6.22304688 4.8734375 5.33984375 4.421875 C3.19953654 3.12125426 1.66337839 1.85425788 0 0 Z " fill="#548BA1" transform="translate(250,313)"/>
<path d="M0 0 C0.33 0 0.66 0 1 0 C1.36116046 1.4774746 1.71375048 2.95704675 2.0625 4.4375 C2.25972656 5.26121094 2.45695312 6.08492187 2.66015625 6.93359375 C2.77230469 7.61550781 2.88445312 8.29742187 3 9 C2.67 9.33 2.34 9.66 2 10 C1.95919217 11.99958364 1.95745644 14.00045254 2 16 C0.02 16.99 -1.96 17.98 -4 19 C-3.79503906 18.21496094 -3.59007812 17.42992187 -3.37890625 16.62109375 C-1.96045756 11.08982255 -0.64503363 5.67629598 0 0 Z " fill="#6195AD" transform="translate(301,226)"/>
<path d="M0 0 C-3.05783908 2.40569331 -6.22457996 4.36189615 -9.625 6.25 C-10.58664063 6.79140625 -11.54828125 7.3328125 -12.5390625 7.890625 C-13.75722656 8.43976563 -13.75722656 8.43976563 -15 9 C-15.66 8.67 -16.32 8.34 -17 8 C-12.45206997 1.66046117 -8.02459914 -0.48633934 0 0 Z " fill="#6794A7" transform="translate(172,157)"/>
<path d="M0 0 C1.42614784 2.63288831 2.58543132 5.34455149 3.6875 8.125 C3.95949219 8.80820313 4.23148437 9.49140625 4.51171875 10.1953125 C5 12 5 12 4 14 C2.125 13.5 2.125 13.5 0 12 C-0.98494554 9.34822355 -1.45912382 6.79452693 -2 4 C-1.34 4 -0.68 4 0 4 C0 2.68 0 1.36 0 0 Z " fill="#538CA5" transform="translate(380,171)"/>
<path d="M0 0 C1.04449911 3.13349732 0.93423645 3.98968256 0 7 C-0.639375 7.12375 -1.27875 7.2475 -1.9375 7.375 C-2.618125 7.58125 -3.29875 7.7875 -4 8 C-4.33 8.66 -4.66 9.32 -5 10 C-6.32 10 -7.64 10 -9 10 C-9.33 10.99 -9.66 11.98 -10 13 C-10.99 12.34 -11.98 11.68 -13 11 C-11.73299277 10.0158875 -10.4612381 9.03788503 -9.1875 8.0625 C-8.12595703 7.24458984 -8.12595703 7.24458984 -7.04296875 6.41015625 C-5 5 -5 5 -2 4 C-0.79117904 1.99983534 -0.79117904 1.99983534 0 0 Z " fill="#6A9BB0" transform="translate(287,259)"/>
<path d="M0 0 C0.66 0 1.32 0 2 0 C1.5547115 5.27315333 0.91626837 10.01770224 -1 15 C-1.66 14.34 -2.32 13.68 -3 13 C-2.61121812 9.98694043 -1.73543126 8.60314689 0 6 C-1.98 6.99 -1.98 6.99 -4 8 C-2.87548273 5.0280615 -1.77706209 2.66559313 0 0 Z " fill="#6B7E8F" transform="translate(388,295)"/>
<path d="M0 0 C-0.33 1.65 -0.66 3.3 -1 5 C-3.8125 6.125 -3.8125 6.125 -7 7 C-7.99 6.34 -8.98 5.68 -10 5 C-8.90241493 4.15801693 -7.79664683 3.32669329 -6.6875 2.5 C-6.07261719 2.0359375 -5.45773438 1.571875 -4.82421875 1.09375 C-3 0 -3 0 0 0 Z " fill="#3A7090" transform="translate(208,392)"/>
<path d="M0 0 C-3.45337594 3.61034757 -5.65367928 4.15785762 -10.625 4.5625 C-11.62789062 4.64628906 -12.63078125 4.73007813 -13.6640625 4.81640625 C-14.43492187 4.87699219 -15.20578125 4.93757812 -16 5 C-15 3 -15 3 -13.14453125 2.1484375 C-8.62151874 0.6483429 -4.83255247 -0.37173481 0 0 Z " fill="#53778F" transform="translate(188,183)"/>
<path d="M0 0 C5.94 0 11.88 0 18 0 C18 0.33 18 0.66 18 1 C11 2 11 2 4 3 C3.3311377 3.09555176 2.66227539 3.19110352 1.97314453 3.28955078 C0.31542969 3.52636719 -1.34228516 3.76318359 -3 4 C-2.34 3.67 -1.68 3.34 -1 3 C-0.67 2.01 -0.34 1.02 0 0 Z " fill="#749FB2" transform="translate(188,149)"/>
<path d="M0 0 C0.75 1.75 0.75 1.75 1 4 C-1.68950284 7.55014375 -4.99889001 9.18131364 -9 11 C-7.82191948 7.6470016 -6.80593388 5.2447471 -4 3 C-3.01 2.67 -2.02 2.34 -1 2 C-0.67 1.34 -0.34 0.68 0 0 Z " fill="#2F5E7E" transform="translate(372,318)"/>
<path d="M0 0 C2.97 0 5.94 0 9 0 C9 0.66 9 1.32 9 2 C10.45833358 3.62514468 10.45833358 3.62514468 12 5 C11.01 5.495 11.01 5.495 10 6 C7.6171875 5.00390625 7.6171875 5.00390625 4.875 3.5625 C3.96492187 3.08941406 3.05484375 2.61632812 2.1171875 2.12890625 C1.41851562 1.75636719 0.71984375 1.38382812 0 1 C0 0.67 0 0.34 0 0 Z " fill="#4F768F" transform="translate(174,385)"/>
<path d="M0 0 C0.99 0.495 0.99 0.495 2 1 C3.67654729 0.72057545 5.34608154 0.39171753 7 0 C6.44225728 3.23490776 5.62788492 4.97855006 3 7 C2.01 7 1.02 7 0 7 C0 4.69 0 2.38 0 0 Z " fill="#3F819A" transform="translate(121,186)"/>
<path d="M0 0 C0 0.66 0 1.32 0 2 C-0.66 2.66 -1.32 3.32 -2 4 C-3.83529062 3.83006568 -5.67079086 3.64165787 -7.4921875 3.359375 C-10.4891068 2.92990993 -13.48240069 2.68004935 -16.5 2.4375 C-17.5415625 2.35371094 -18.583125 2.26992188 -19.65625 2.18359375 C-20.4296875 2.12300781 -21.203125 2.06242187 -22 2 C-22 1.67 -22 1.34 -22 1 C-19.27093526 0.83150207 -16.54176829 0.6651397 -13.8125 0.5 C-13.04357422 0.45230469 -12.27464844 0.40460938 -11.48242188 0.35546875 C-7.648496 0.12510411 -3.84309823 -0.0616128 0 0 Z " fill="#1D5376" transform="translate(306,354)"/>
<path d="M0 0 C2.31 0.66 4.62 1.32 7 2 C7 2.66 7 3.32 7 4 C7.99 4.33 8.98 4.66 10 5 C10 6.32 10 7.64 10 9 C9.34 9 8.68 9 8 9 C8 8.34 8 7.68 8 7 C7.4225 6.773125 6.845 6.54625 6.25 6.3125 C3.4336339 4.66961977 1.91922886 2.60466773 0 0 Z " fill="#5C7E95" transform="translate(150,366)"/>
<path d="M0 0 C0 0.33 0 0.66 0 1 C-0.73605469 1.19335938 -1.47210938 1.38671875 -2.23046875 1.5859375 C-3.20628906 1.84632813 -4.18210938 2.10671875 -5.1875 2.375 C-6.15042969 2.63023437 -7.11335937 2.88546875 -8.10546875 3.1484375 C-10.82210207 3.94766296 -13.39137175 4.9031362 -16 6 C-15.67 5.01 -15.34 4.02 -15 3 C-14.34 3.33 -13.68 3.66 -13 4 C-13 3.01 -13 2.02 -13 1 C-8.59085217 -0.10228696 -4.51617599 -0.07654536 0 0 Z " fill="#608093" transform="translate(253,223)"/>
<path d="M0 0 C-1.20842856 4.43090471 -2.51668565 6.98112756 -6 10 C-6.33663062 6.29706315 -6.47736015 4.60465619 -4.125 1.625 C-2 0 -2 0 0 0 Z " fill="#5B7E94" transform="translate(375,334)"/>
<path d="M0 0 C1.48831242 0.00667405 2.97660807 0.01863442 4.46484375 0.03515625 C5.22345703 0.03966797 5.98207031 0.04417969 6.76367188 0.04882812 C8.64326246 0.06064945 10.52281274 0.07858547 12.40234375 0.09765625 C12.40234375 0.42765625 12.40234375 0.75765625 12.40234375 1.09765625 C11.15517578 1.18853516 11.15517578 1.18853516 9.8828125 1.28125 C8.25279297 1.40693359 8.25279297 1.40693359 6.58984375 1.53515625 C5.51089844 1.61636719 4.43195313 1.69757813 3.3203125 1.78125 C0.3424447 1.99978086 0.3424447 1.99978086 -2.59765625 3.09765625 C-2.92765625 5.07765625 -3.25765625 7.05765625 -3.59765625 9.09765625 C-3.92765625 9.09765625 -4.25765625 9.09765625 -4.59765625 9.09765625 C-4.6953125 2.9453125 -4.6953125 2.9453125 -4.59765625 1.09765625 C-3.59765625 0.09765625 -3.59765625 0.09765625 0 0 Z " fill="#B7CFD7" transform="translate(235.59765625,278.90234375)"/>
<path d="M0 0 C2.03833424 1.2739589 4.03852126 2.61061923 6 4 C6 4.66 6 5.32 6 6 C6.9590625 6.433125 6.9590625 6.433125 7.9375 6.875 C10 8 10 8 11 10 C9.35 9.67 7.7 9.34 6 9 C6 8.34 6 7.68 6 7 C4.68 6.34 3.36 5.68 2 5 C2 4.34 2 3.68 2 3 C1.34 3 0.68 3 0 3 C0 2.01 0 1.02 0 0 Z " fill="#7097A9" transform="translate(345,125)"/>
<path d="M0 0 C0.33 1.65 0.66 3.3 1 5 C-0.65 5.33 -2.3 5.66 -4 6 C-4.33 5.01 -4.66 4.02 -5 3 C-4.34 3 -3.68 3 -3 3 C-3 2.34 -3 1.68 -3 1 C-4.32 0.67 -5.64 0.34 -7 0 C-3.98968256 -0.93423645 -3.13349732 -1.04449911 0 0 Z " fill="#5796B1" transform="translate(218,98)"/>
<path d="M0 0 C0 0.99 0 1.98 0 3 C0.66 3.33 1.32 3.66 2 4 C0.68 4.99 -0.64 5.98 -2 7 C-2.99 6.01 -3.98 5.02 -5 4 C-4.67 3.01 -4.34 2.02 -4 1 C-2 0 -2 0 0 0 Z " fill="#376C8E" transform="translate(358,353)"/>
<path d="M0 0 C2 2 2 2 2 6 C2.99 6.33 3.98 6.66 5 7 C5.94921875 9.06640625 5.94921875 9.06640625 6.6875 11.5625 C6.93886719 12.38878906 7.19023437 13.21507812 7.44921875 14.06640625 C7.63097656 14.70449219 7.81273437 15.34257812 8 16 C3.03542815 11.17727306 0.56071897 7.00898714 0 0 Z " fill="#759FB0" transform="translate(232,288)"/>
<path d="M0 0 C0.66 0.33 1.32 0.66 2 1 C0.38019093 4.23961814 -2.79389124 5.58256244 -6 7 C-8.9375 7.25 -8.9375 7.25 -11 7 C-8.84658594 4.65082102 -6.78332063 3.17556996 -3.9375 1.75 C-3.24527344 1.39421875 -2.55304688 1.0384375 -1.83984375 0.671875 C-1.23269531 0.45015625 -0.62554687 0.2284375 0 0 Z " fill="#6492A8" transform="translate(184,108)"/>
<path d="M0 0 C-0.33 1.98 -0.66 3.96 -1 6 C-1.350625 5.484375 -1.70125 4.96875 -2.0625 4.4375 C-4.09468727 2.59853617 -4.09468727 2.59853617 -7.6875 3.3125 C-8.780625 3.539375 -9.87375 3.76625 -11 4 C-9.71264403 1.42528807 -8.71510189 1.29583343 -6.0625 0.3125 C-5.35222656 0.04050781 -4.64195312 -0.23148437 -3.91015625 -0.51171875 C-2 -1 -2 -1 0 0 Z " fill="#659DB3" transform="translate(198,104)"/>
<path d="M0 0 C0.66 0 1.32 0 2 0 C2 0.66 2 1.32 2 2 C2.66 2 3.32 2 4 2 C3.34 3.65 2.68 5.3 2 7 C0.35 6.67 -1.3 6.34 -3 6 C-2.505 5.195625 -2.01 4.39125 -1.5 3.5625 C0.08419653 1.35103815 0.08419653 1.35103815 0 0 Z " fill="#245D80" transform="translate(243,343)"/>
<path d="M0 0 C0.66 0.33 1.32 0.66 2 1 C-0.96915828 6.3444849 -3.22718912 8.00171931 -9 10 C-7.61811547 6.78956118 -6.07578097 4.95063635 -3.375 2.75 C-2.74335938 2.22921875 -2.11171875 1.7084375 -1.4609375 1.171875 C-0.73777344 0.59179688 -0.73777344 0.59179688 0 0 Z " fill="#6B90A4" transform="translate(149,201)"/>
<path d="M0 0 C2.1875 -0.375 2.1875 -0.375 5 0 C6.99022836 1.83961648 8.38989899 3.79186148 10 6 C6.62972148 6 5.93297304 5.50175992 3.3125 3.5625 C2.68988281 3.11003906 2.06726563 2.65757812 1.42578125 2.19140625 C0.95527344 1.79824219 0.48476562 1.40507812 0 1 C0 0.67 0 0.34 0 0 Z " fill="#608294" transform="translate(164,378)"/>
<path d="M0 0 C3 1 3 1 4.75 3.9375 C5.1625 4.948125 5.575 5.95875 6 7 C5 9 5 9 3 10 C2.49596232 8.70990357 1.99690074 7.41786211 1.5 6.125 C1.2215625 5.40570313 0.943125 4.68640625 0.65625 3.9453125 C0 2 0 2 0 0 Z " fill="#486E89" transform="translate(272,204)"/>
<path d="M0 0 C0.66 0.33 1.32 0.66 2 1 C2 2.65 2 4.3 2 6 C2.99 6.33 3.98 6.66 5 7 C5 8.65 5 10.3 5 12 C2.04250209 8.53258866 -0.07848152 5.13126473 -2 1 C-1.34 0.67 -0.68 0.34 0 0 Z " fill="#709CB0" transform="translate(290,180)"/>
<path d="M0 0 C1.4391134 0.28359887 2.87625518 0.57721399 4.3125 0.875 C5.11300781 1.03742188 5.91351563 1.19984375 6.73828125 1.3671875 C9 2 9 2 12 4 C8.44757118 5.18414294 7.30169438 4.69535532 3.8125 3.5625 C2.91144531 3.27503906 2.01039063 2.98757812 1.08203125 2.69140625 C0.39496094 2.46324219 -0.29210937 2.23507813 -1 2 C-0.67 1.34 -0.34 0.68 0 0 Z " fill="#5E98A9" transform="translate(294,99)"/>
<path d="M0 0 C0.33 0.66 0.66 1.32 1 2 C0.34 2 -0.32 2 -1 2 C-1.268125 2.78375 -1.53625 3.5675 -1.8125 4.375 C-3 7 -3 7 -6 9 C-5.45276317 5.62537285 -4.9451 3.91765 -3 1 C-2.01 0.67 -1.02 0.34 0 0 Z " fill="#416C8A" transform="translate(134,219)"/>
<path d="M0 0 C1.9375 0.375 1.9375 0.375 4 1 C4.33 1.66 4.66 2.32 5 3 C3.35 4.32 1.7 5.64 0 7 C-0.66 6.01 -1.32 5.02 -2 4 C-1.34 2.68 -0.68 1.36 0 0 Z " fill="#3E6E8F" transform="translate(260,191)"/>
<path d="M0 0 C0.66 0 1.32 0 2 0 C2 0.99 2 1.98 2 3 C2.99 3.33 3.98 3.66 5 4 C5.33 5.98 5.66 7.96 6 10 C3.35247996 7.42215154 1.05567935 5.08351902 -1 2 C-0.67 1.34 -0.34 0.68 0 0 Z " fill="#5F829C" transform="translate(139,351)"/>
<path d="M0 0 C0.99 0.33 1.98 0.66 3 1 C1.60667426 4.36720387 0.0210714 5.9859524 -3 8 C-2.67 6.02 -2.34 4.04 -2 2 C-1.34 2 -0.68 2 0 2 C0 1.34 0 0.68 0 0 Z " fill="#4D84A0" transform="translate(356,296)"/>
<path d="M0 0 C0.33 0 0.66 0 1 0 C1.14285714 7.42857143 1.14285714 7.42857143 0 11 C-0.66 11 -1.32 11 -2 11 C-2.33 11.66 -2.66 12.32 -3 13 C-2.68991116 11.39536551 -2.37683713 9.79130769 -2.0625 8.1875 C-1.88847656 7.29417969 -1.71445313 6.40085938 -1.53515625 5.48046875 C-1 3 -1 3 0 0 Z " fill="#6C93AD" transform="translate(106,193)"/>
<path d="M0 0 C0.66 1.32 1.32 2.64 2 4 C-0.3125 5.5625 -0.3125 5.5625 -3 7 C-3.99 6.67 -4.98 6.34 -6 6 C-4.02 4.02 -2.04 2.04 0 0 Z " fill="#6398AD" transform="translate(146,133)"/>
<path d="M0 0 C1.50433594 0.29197266 1.50433594 0.29197266 3.0390625 0.58984375 C4.19535156 0.82380859 4.19535156 0.82380859 5.375 1.0625 C5.375 1.3925 5.375 1.7225 5.375 2.0625 C1.085 2.0625 -3.205 2.0625 -7.625 2.0625 C-7.625 1.4025 -7.625 0.7425 -7.625 0.0625 C-4.81015955 -1.34492022 -3.05563887 -0.60402164 0 0 Z " fill="#426C86" transform="translate(220.625,177.9375)"/>
<path d="M0 0 C0.66 0 1.32 0 2 0 C0.50902342 3.7952131 -1.75700849 5.61042731 -5 8 C-5.33 6.68 -5.66 5.36 -6 4 C-5.195625 3.525625 -4.39125 3.05125 -3.5625 2.5625 C-1.15246512 1.23099846 -1.15246512 1.23099846 0 0 Z " fill="#6092A7" transform="translate(137,176)"/>
<path d="M0 0 C1.04220703 0.25330078 1.04220703 0.25330078 2.10546875 0.51171875 C2.66878906 0.77597656 3.23210937 1.04023438 3.8125 1.3125 C4.1425 2.3025 4.4725 3.2925 4.8125 4.3125 C0.5225 3.3225 -3.7675 2.3325 -8.1875 1.3125 C-3.63780675 -0.96234663 -3.63780675 -0.96234663 0 0 Z " fill="#6495AD" transform="translate(247.1875,150.6875)"/>
<path d="M0 0 C1.32 0.33 2.64 0.66 4 1 C4 1.66 4 2.32 4 3 C1.36 3.99 -1.28 4.98 -4 6 C-4.33 5.34 -4.66 4.68 -5 4 C-4.01 3.67 -3.02 3.34 -2 3 C-1.34 2.01 -0.68 1.02 0 0 Z " fill="#416C82" transform="translate(315,387)"/>
<path d="M0 0 C0.66 0.33 1.32 0.66 2 1 C2 1.99 2 2.98 2 4 C1.34 4 0.68 4 0 4 C-0.33 4.66 -0.66 5.32 -1 6 C-2.32 5.01 -3.64 4.02 -5 3 C-2.625 1.4375 -2.625 1.4375 0 0 Z " fill="#497E99" transform="translate(347,337)"/>
<path d="M0 0 C3 1 3 1 5 2 C4.34 3.98 3.68 5.96 3 8 C2.34 8 1.68 8 1 8 C0.67 5.36 0.34 2.72 0 0 Z " fill="#29638B" transform="translate(376,316)"/>
<path d="M0 0 C1.11772247 3.35316742 0.85096806 5.59612776 0 9 C-0.185625 9.763125 -0.37125 10.52625 -0.5625 11.3125 C-0.706875 11.869375 -0.85125 12.42625 -1 13 C-1.66 12.67 -2.32 12.34 -3 12 C-2.88541307 10.56163249 -2.75790884 9.12429034 -2.625 7.6875 C-2.55539063 6.88699219 -2.48578125 6.08648437 -2.4140625 5.26171875 C-2 3 -2 3 0 0 Z " fill="#3C7C96" transform="translate(109,188)"/>
<path d="M0 0 C5.875 4.625 5.875 4.625 7 8 C6.01 8 5.02 8 4 8 C4 7.34 4 6.68 4 6 C3.34 6 2.68 6 2 6 C0 3 0 3 0 0 Z " fill="#4A6D87" transform="translate(265,194)"/>
<path d="M0 0 C1.64826111 2.96687001 2.44271087 5.65626525 3 9 C1.68 8.67 0.36 8.34 -1 8 C-1.33 6.68 -1.66 5.36 -2 4 C-1.34 4 -0.68 4 0 4 C0 2.68 0 1.36 0 0 Z " fill="#659DAF" transform="translate(380,171)"/>
<path d="M0 0 C1.70884005 1.62339805 3.37446717 3.29319053 5 5 C5 5.66 5 6.32 5 7 C3.35 7 1.7 7 0 7 C0 4.69 0 2.38 0 0 Z " fill="#6390A6" transform="translate(364,145)"/>
<path d="M0 0 C1.32 0 2.64 0 4 0 C4 0.99 4 1.98 4 3 C3.34 3 2.68 3 2 3 C2 3.66 2 4.32 2 5 C1.34 5 0.68 5 0 5 C0 5.66 0 6.32 0 7 C-0.66 6.67 -1.32 6.34 -2 6 C-1.34 4.02 -0.68 2.04 0 0 Z " fill="#5B7C91" transform="translate(349,362)"/>
<path d="M0 0 C1.32 1.65 2.64 3.3 4 5 C3.67 5.66 3.34 6.32 3 7 C2.01 7.33 1.02 7.66 0 8 C-0.79953138 4.71303767 -1.09658936 3.28976808 0 0 Z " fill="#6387A3" transform="translate(212,310)"/>
<path d="M0 0 C2.96175123 0.61277612 4.38058783 1.25372522 7 3 C6.67 3.66 6.34 4.32 6 5 C4.35 4.67 2.7 4.34 1 4 C0.67 2.68 0.34 1.36 0 0 Z " fill="#6191A7" transform="translate(337,120)"/>
<path d="M0 0 C0.66 0.33 1.32 0.66 2 1 C-0.25 3.5625 -0.25 3.5625 -3 6 C-4.32 5.67 -5.64 5.34 -7 5 C-4.69 3.35 -2.38 1.7 0 0 Z " fill="#76A1B4" transform="translate(167,117)"/>
<path d="M0 0 C0 0.66 0 1.32 0 2 C-2.97 2.66 -5.94 3.32 -9 4 C-9 3.01 -9 2.02 -9 1 C-6.04335481 -0.4783226 -3.25770263 -0.06032783 0 0 Z " fill="#357D9C" transform="translate(329,114)"/>
<path d="M0 0 C-0.6875 1.9375 -0.6875 1.9375 -2 4 C-4.625 4.75 -4.625 4.75 -7 5 C-5.64703851 0.94111554 -4.27479763 0 0 0 Z " fill="#3C6985" transform="translate(355,334)"/>
<path d="M0 0 C-1 1.5625 -1 1.5625 -3 3 C-5.76614782 2.96726452 -8.26030547 2.49404328 -11 2 C-11 1.67 -11 1.34 -11 1 C-7.26562152 0.12132271 -3.83225427 -0.08912219 0 0 Z " fill="#6590A2" transform="translate(259,278)"/>
<path d="M0 0 C1.125 1.5625 1.125 1.5625 2 4 C1.125 7.75 1.125 7.75 0 11 C-0.33 11 -0.66 11 -1 11 C-1.125 3.375 -1.125 3.375 0 0 Z " fill="#7190A1" transform="translate(114,256)"/>
<path d="M0 0 C0.33 0 0.66 0 1 0 C1.75 3.25 1.75 3.25 2 7 C0.0625 9.4375 0.0625 9.4375 -2 11 C-1 3.57142857 -1 3.57142857 0 0 Z " fill="#6F8CA2" transform="translate(117,245)"/>
<path d="M0 0 C-0.66 1.65 -1.32 3.3 -2 5 C-2.99 5 -3.98 5 -5 5 C-5.33 3.68 -5.66 2.36 -6 1 C-3.92446352 0.4465236 -2.15634036 0 0 0 Z " fill="#578FA8" transform="translate(123,193)"/>
<path d="M0 0 C-0.56371414 3.26954202 -1.49962266 4.82575883 -4 7 C-4.33 5.35 -4.66 3.7 -5 2 C-2 0 -2 0 0 0 Z " fill="#609AAD" transform="translate(377,273)"/>
<path d="M0 0 C0.103125 0.639375 0.20625 1.27875 0.3125 1.9375 C0.539375 2.618125 0.76625 3.29875 1 4 C1.99 4.33 2.98 4.66 4 5 C3.360625 5.12375 2.72125 5.2475 2.0625 5.375 C1.0415625 5.684375 1.0415625 5.684375 0 6 C-0.33 6.66 -0.66 7.32 -1 8 C-1.66 8 -2.32 8 -3 8 C-1.125 2.25 -1.125 2.25 0 0 Z " fill="#548AA1" transform="translate(114,175)"/>
<path d="M0 0 C1.65 0.33 3.3 0.66 5 1 C3.37660195 2.70884005 1.70680947 4.37446717 0 6 C-0.66 6 -1.32 6 -2 6 C-1.67 5.01 -1.34 4.02 -1 3 C-0.34 2.67 0.32 2.34 1 2 C0.67 1.34 0.34 0.68 0 0 Z " fill="#6E9BB1" transform="translate(142,170)"/>
<path d="M0 0 C4.875 4.75 4.875 4.75 6 7 C3.13275314 6.42655063 2.1385485 6.1385485 0 4 C0 2.68 0 1.36 0 0 Z " fill="#7198AE" transform="translate(356,135)"/>
<path d="M0 0 C3.63 0.33 7.26 0.66 11 1 C11 1.33 11 1.66 11 2 C4.6 3.23076923 4.6 3.23076923 1.5625 2.0625 C1.046875 1.711875 0.53125 1.36125 0 1 C0 0.67 0 0.34 0 0 Z " fill="#6394A4" transform="translate(268,352)"/>
<path d="M0 0 C3.465 1.485 3.465 1.485 7 3 C6.01 3.99 5.02 4.98 4 6 C3.34 5.67 2.68 5.34 2 5 C2 4.01 2 3.02 2 2 C1.34 2 0.68 2 0 2 C0 1.34 0 0.68 0 0 Z " fill="#48738D" transform="translate(245,343)"/>
<path d="M0 0 C0.33 0.99 0.66 1.98 1 3 C0.01 3.99 -0.98 4.98 -2 6 C-1.34 6.33 -0.68 6.66 0 7 C-0.66 7.66 -1.32 8.32 -2 9 C-2.33 6.69 -2.66 4.38 -3 2 C-2.01 1.34 -1.02 0.68 0 0 Z " fill="#5484A1" transform="translate(118,303)"/>
</svg>
